<svg width="21" height="21" viewBox="0 0 21 21" fill="none" xmlns="http://www.w3.org/2000/svg">
<path d="M3.88711 0.682617C1.88935 0.682617 0.280762 2.29121 0.280762 4.28896L0.280763 16.8269C0.280763 18.8247 1.88936 20.4333 3.88711 20.4333L10.6826 20.4333L10.6826 12.712L8.64086 12.712L8.64086 9.93209L10.6826 9.93209L10.6826 7.55708C10.6826 5.69114 11.8889 3.97789 14.6679 3.97789C15.793 3.97789 16.6251 4.0859 16.6251 4.0859L16.5596 6.68189C16.5596 6.68189 15.7111 6.67387 14.7851 6.67387C13.783 6.67387 13.6223 7.1356 13.6223 7.90212L13.6223 9.93211L16.6392 9.93211L16.5078 12.712L13.6223 12.712L13.6223 20.4333L16.4251 20.4333C18.4228 20.4333 20.0314 18.8247 20.0314 16.8269L20.0314 4.28898C20.0314 2.29122 18.4228 0.682635 16.4251 0.682636L3.88709 0.682637L3.88711 0.682617Z" fill="#7F7F7F"/>
</svg>
