<svg width="20" height="21" viewBox="0 0 20 21" fill="none" xmlns="http://www.w3.org/2000/svg">
<path d="M15.9523 7.91697H14.433C14.4324 7.31273 14.1921 6.73341 13.7648 6.30614C13.3375 5.87888 12.7582 5.63858 12.154 5.63797V4.11864C13.161 4.11985 14.1264 4.52042 14.8385 5.23248C15.5505 5.94454 15.9511 6.90996 15.9523 7.91697Z" fill="#7F7F7F"/>
<path d="M18.991 7.91697H17.4716C17.47 6.50713 16.9093 5.1555 15.9124 4.15859C14.9154 3.16169 13.5638 2.60092 12.154 2.59931V1.07998C13.9666 1.08199 15.7045 1.80296 16.9862 3.08471C18.268 4.36646 18.989 6.1043 18.991 7.91697Z" fill="#7F7F7F"/>
<path d="M13.1666 14.3604L14.8683 12.6588C15.096 12.431 15.3857 12.275 15.7012 12.2102C16.0168 12.1453 16.3445 12.1746 16.6436 12.2942L18.716 13.1237C19.0214 13.2459 19.2833 13.4569 19.4677 13.7293C19.6521 14.0017 19.7507 14.3232 19.7507 14.6522V18.4209C19.7512 18.6448 19.706 18.8666 19.6179 19.0725C19.5297 19.2785 19.4005 19.4642 19.2381 19.6185C19.0756 19.7727 18.8834 19.8922 18.6732 19.9696C18.463 20.047 18.2392 20.0807 18.0156 20.0686C3.48919 19.1646 0.55535 6.86103 0.0106674 2.14959C-0.0157131 1.91926 0.00696991 1.68595 0.0772248 1.46501C0.14748 1.24407 0.263715 1.04051 0.418284 0.867716C0.572853 0.694921 0.762254 0.556807 0.974029 0.462461C1.1858 0.368114 1.41515 0.319671 1.64699 0.320319H5.34886C5.67785 0.320308 5.99929 0.418871 6.27173 0.603294C6.54417 0.787716 6.7551 1.04954 6.87731 1.35498L7.70611 3.42735C7.82572 3.72648 7.85492 4.05414 7.7901 4.36972C7.72529 4.68529 7.5693 4.97491 7.34147 5.20269L5.63981 6.90433C5.63981 6.90433 6.58332 13.5377 13.1666 14.3604Z" fill="#7F7F7F"/>
</svg>
