<svg width="21" height="21" viewBox="0 0 21 21" fill="none" xmlns="http://www.w3.org/2000/svg">
<path d="M13.1874 0.501465H7.12477C1.59229 0.501465 0.280762 1.81299 0.280762 7.34547V13.4081C0.280762 18.9406 1.59229 20.2521 7.12477 20.2521H13.1874C18.7199 20.2521 20.0314 18.9406 20.0314 13.4081V7.34547C20.0314 1.81299 18.7069 0.501465 13.1874 0.501465ZM16.2252 14.5906H14.7915C14.2484 14.5906 14.0811 14.1599 13.1041 13.1699C12.2555 12.3472 11.8796 12.2379 11.6704 12.2379C11.3747 12.2379 11.2908 12.3212 11.2908 12.7267V14.0222C11.2908 14.3697 11.1815 14.5783 10.2619 14.5783C8.74118 14.5783 7.05379 13.6587 5.87064 11.9454C4.08635 9.43466 3.59815 7.55408 3.59815 7.16525C3.59815 6.95602 3.68147 6.76038 4.08326 6.76038H5.52008C5.8836 6.76038 6.02185 6.92763 6.16319 7.31646C6.87357 9.36738 8.05672 11.164 8.54492 11.164C8.72514 11.164 8.80846 11.0807 8.80846 10.6209V8.5027C8.75353 7.52569 8.23941 7.44175 8.23941 7.09489C8.23941 6.92763 8.37766 6.76038 8.59923 6.76038H10.8588C11.1643 6.76038 11.2766 6.92763 11.2766 7.28746V10.145C11.2766 10.4536 11.4148 10.5629 11.4982 10.5629C11.6784 10.5629 11.8327 10.4536 12.1666 10.1191C13.1985 8.96189 13.9379 7.1776 13.9379 7.1776C14.0342 6.96837 14.2015 6.77272 14.565 6.77272H16.0018C16.4326 6.77272 16.5289 6.99429 16.4326 7.30289C16.2524 8.13856 14.494 10.6203 14.494 10.6203C14.3428 10.8709 14.2848 10.9801 14.494 11.2597C14.6483 11.4689 15.1501 11.9028 15.484 12.2916C16.0981 12.989 16.5702 13.5741 16.6961 13.979C16.8375 14.3808 16.6289 14.59 16.2234 14.59L16.2252 14.5906Z" fill="#7F7F7F"/>
</svg>
