<svg width="25" height="25" viewBox="0 0 25 25" fill="none" xmlns="http://www.w3.org/2000/svg">
<path d="M4.56485 -3.99072e-07C2.03612 -1.78004e-07 1.78003e-07 2.03612 3.99071e-07 4.56484L1.7865e-06 20.4351C2.00756e-06 22.9639 2.03613 25 4.56485 25L13.1664 25L13.1664 15.2265L10.5821 15.2265L10.5821 11.7078L13.1664 11.7078L13.1664 8.70156C13.1664 6.33969 14.6934 4.17109 18.2109 4.17109C19.6351 4.17109 20.6883 4.30782 20.6883 4.30782L20.6055 7.59376C20.6055 7.59376 19.5314 7.58361 18.3594 7.58361C17.0909 7.58361 16.8875 8.16806 16.8875 9.13831L16.8875 11.7078L20.7063 11.7078L20.5398 15.2266L16.8875 15.2266L16.8875 25L20.4352 25C22.9639 25 25 22.9639 25 20.4352L25 4.56486C25 2.03614 22.9639 2.29924e-05 20.4351 2.32135e-05L4.56482 2.46009e-05L4.56485 -3.99072e-07Z" fill="#346B2F"/>
</svg>
