<svg width="25" height="25" viewBox="0 0 25 25" fill="none" xmlns="http://www.w3.org/2000/svg">
<path d="M20.1921 9.6157H18.269C18.2682 8.85086 17.964 8.11757 17.4232 7.57675C16.8824 7.03592 16.1491 6.73176 15.3843 6.73099V4.80785C16.6589 4.80938 17.8809 5.31641 18.7822 6.21773C19.6836 7.11904 20.1906 8.34105 20.1921 9.6157Z" fill="#346B2F"/>
<path d="M24.0384 9.6157H22.1153C22.1132 7.83116 21.4034 6.12029 20.1416 4.85842C18.8797 3.59656 17.1688 2.88675 15.3843 2.88472V0.961577C17.6787 0.964122 19.8784 1.87671 21.5009 3.49912C23.1233 5.12153 24.0359 7.32127 24.0384 9.6157Z" fill="#346B2F"/>
<path d="M16.666 17.7717L18.82 15.6178C19.1083 15.3294 19.4749 15.132 19.8743 15.0499C20.2738 14.9679 20.6885 15.0049 21.0672 15.1563L23.6903 16.2063C24.077 16.361 24.4084 16.628 24.6418 16.9728C24.8752 17.3177 25 17.7245 25 18.141V22.9113C25.0007 23.1948 24.9435 23.4755 24.8319 23.7362C24.7203 23.9968 24.5568 24.232 24.3512 24.4272C24.1456 24.6225 23.9023 24.7737 23.6362 24.8717C23.3701 24.9696 23.0869 25.0123 22.8038 24.997C4.41655 23.8527 0.702951 8.27912 0.0135026 2.31547C-0.0198894 2.02391 0.00882238 1.7286 0.0977497 1.44894C0.186677 1.16928 0.333805 0.911613 0.529455 0.692893C0.725106 0.474172 0.964846 0.299351 1.23291 0.179928C1.50097 0.0605057 1.79127 -0.00081198 2.08473 8.11894e-06H6.77048C7.18691 -5.25267e-06 7.59379 0.124754 7.93864 0.358192C8.28348 0.59163 8.55047 0.923038 8.70517 1.30967L9.75424 3.93283C9.90564 4.31147 9.94261 4.72621 9.86056 5.12566C9.77852 5.5251 9.58107 5.8917 9.29269 6.18001L7.13876 8.33393C7.13876 8.33393 8.33304 16.7304 16.666 17.7717Z" fill="#346B2F"/>
</svg>
