<svg width="35" height="84" viewBox="0 0 35 84" fill="none" xmlns="http://www.w3.org/2000/svg">
<path fill-rule="evenodd" clip-rule="evenodd" d="M30.1083 42.6574C31.1653 43.4724 33.212 45.5434 32.943 47.3076C32.6067 49.5128 30.7329 51.3346 26.3607 52.6289C27.706 55.3136 30.1852 62.2169 29.3396 68.3533C28.2825 76.0237 25.9764 81.7285 17.8086 82.927C16.5434 83.0709 13.4652 83.0996 11.2744 82.0641C10.5697 82.3038 8.73755 82.6778 7.04634 82.2559C5.36474 81.6327 1.80935 79.2836 1.04062 74.8731C0.960546 73.5468 0.944531 70.4914 1.52108 68.8806C1.54665 68.8092 1.57313 68.7346 1.60067 68.6571L1.60289 68.6509L1.60324 68.6499C2.35276 66.54 3.88705 62.221 9.25645 57.2791C13.7151 53.1755 17.1039 49.3051 18.241 47.8829C19.5543 46.3967 21.8348 42.2164 20.4511 37.384C19.0674 32.5516 16.095 25.4629 14.7817 22.5226L10.3135 10.4896C9.76894 9.01947 8.77599 5.81069 9.16036 4.73683C9.54473 3.66297 10.2814 3.49039 10.6017 3.53833C11.1302 3.60225 12.5524 4.13278 14.013 5.74357C15.4736 7.35435 17.3121 9.86641 18.0488 10.9211C19.0578 12.7268 21.585 17.7573 23.6221 23.4334C24.2755 22.7048 24.4069 20.6369 24.3909 19.6941C24.8233 16.0667 26.0821 7.92004 27.658 4.35331C29.2339 0.786566 30.845 0.757802 31.4536 1.18926C32.0461 1.44494 33.2985 3.04934 33.5676 7.42147C33.8366 11.7936 33.968 18.0322 34 20.605C33.9199 22.4587 33.2793 27.3166 32.8469 29.378C32.5106 31.1518 31.0212 36.569 28.1865 42.0342L30.9251 34.4117C31.934 31.2317 33.1832 23.9128 33.1832 19.3106C33.1832 18.7494 33.186 18.1323 33.189 17.4779L33.189 17.4705L33.189 17.4695C33.2108 12.7015 33.2415 5.95424 32.2704 4.35331C31.1942 2.57931 31.0294 2.53284 30.7109 2.44308C30.7023 2.44067 30.6937 2.43822 30.6848 2.43571C30.4158 2.359 29.9001 3.39451 29.6759 3.92185C28.6669 6.11111 26.4472 12.3305 25.64 19.6941C24.8139 27.2312 24.9219 27.7608 25.1201 28.7319C25.1639 28.9467 25.2122 29.1831 25.2557 29.5218C25.4479 31.0176 26.1685 33.405 26.5049 34.4117C26.665 34.955 27.0045 36.3101 27.0814 37.384C27.1583 38.4579 26.7291 39.813 26.5049 40.3563C26.4408 40.4841 26.207 40.7302 25.7842 40.6919C25.3614 40.6535 24.583 39.2057 24.2467 38.4866C23.9264 37.6237 23.3819 35.802 23.3819 32.7338V26.5975C23.3979 25.8784 23.3531 23.6731 22.469 22.1391C21.4767 19.9388 20.8991 18.4888 20.427 17.3038C19.6647 15.3906 19.1776 14.1678 17.6645 11.5923C15.2141 7.42147 13.1482 4.97652 11.2744 4.35331C9.77534 3.85473 9.74824 4.64146 9.78495 5.26417C9.833 6.07915 9.96753 8.28439 10.89 10.3938C13.619 17.834 17.3441 27.1088 18.8656 30.8162C19.4742 32.2864 20.8163 35.6581 21.3159 37.384C21.8156 39.1098 21.9405 40.8197 21.9405 41.4589C21.8124 42.0821 21.4697 43.597 21.1237 44.6709C20.7778 45.7447 19.1539 48.6499 18.241 49.5128C17.7669 49.961 15.8878 51.8473 14.0187 53.7235C12.2892 55.4596 10.5683 57.1871 9.97714 57.7585C8.43967 59.2447 5.26866 63.1278 4.35579 65.1413C3.44292 67.1548 2.33787 70.2709 2.53005 73.6267C2.72223 76.9825 3.01052 77.9892 5.02843 79.763C7.04634 81.5368 8.6799 81.2012 8.6799 81.2012L6.03739 78.4686C5.38076 77.4938 4.59602 75.4484 4.54797 72.9555C4.49992 70.4626 5.3167 67.2506 7.19049 65.9083C9.06427 64.566 12.2353 65.7645 13.1962 66.6274C14.1571 67.4903 14.8298 68.545 15.1661 69.8874C15.5024 71.2297 15.9348 73.8184 15.9348 75.4484C15.9348 77.0784 14.3013 79.892 13.3884 81.2012C16.0789 81.4888 21.4012 81.1284 23.3819 79.5712C24.9674 78.3248 26.5529 75.784 27.4658 72.4761C28.3787 69.1683 28.9072 62.3128 27.2255 58.142C25.8803 54.8054 25.3838 53.2362 25.3037 52.8686C24.6999 52.9188 24.4183 52.8671 24.0545 52.581C23.6288 52.0346 23.6433 51.839 23.6683 51.5034L23.6702 51.4784C23.7975 50.9568 24.1987 50.8072 24.3909 50.7593C24.583 50.7113 25.1596 50.7113 25.3037 50.9031C25.4479 51.0948 26.0244 52.0537 26.0244 52.0537C26.0244 52.0537 29.2435 51.0949 29.82 50.7113C30.3966 50.3278 31.8379 49.1293 32.1262 48.554C32.4145 47.9788 32.4625 47.2117 32.3664 46.5885C32.2704 45.9653 30.1083 42.6574 30.1083 42.6574ZM6.27756 75.6881C6.80612 78.7083 10.0732 80.578 11.6585 80.53C13.2439 80.4821 13.8208 79.2357 14.061 78.5645C14.3013 77.8933 14.6664 75.4772 14.5895 74.0581C14.5127 72.6391 13.5806 70.6544 13.1001 69.9353C12.6197 69.2162 10.5537 66.9534 9.20841 66.9151C7.86313 66.8767 6.95022 68.3373 6.66192 69.0724C5.74912 71.6132 5.749 72.6679 6.27756 75.6881Z" fill="white"/>
<path d="M28.2528 45.193C28.2528 45.6275 27.9 45.9797 27.4649 45.9797C27.0297 45.9797 26.677 45.6275 26.677 45.193C26.677 44.7585 27.0297 44.4063 27.4649 44.4063C27.9 44.4063 28.2528 44.7585 28.2528 45.193Z" fill="white"/>
<path d="M23.6702 51.4784C23.7975 50.9568 24.1987 50.8072 24.3909 50.7593C24.583 50.7113 25.1596 50.7113 25.3037 50.9031C25.4479 51.0949 26.0244 52.0537 26.0244 52.0537C26.0244 52.0537 29.2435 51.0949 29.82 50.7113C30.3966 50.3278 31.8379 49.1293 32.1262 48.554C32.4145 47.9788 32.4625 47.2117 32.3664 46.5885C32.2704 45.9653 30.1083 42.6574 30.1083 42.6574C31.1653 43.4724 33.212 45.5434 32.943 47.3076C32.6067 49.5128 30.7329 51.3346 26.3607 52.6289C27.706 55.3136 30.1852 62.2169 29.3396 68.3533C28.2825 76.0237 25.9764 81.7285 17.8086 82.927C16.5434 83.0709 13.4652 83.0996 11.2744 82.0641C10.5697 82.3038 8.73755 82.6778 7.04634 82.2559C5.36474 81.6327 1.80935 79.2836 1.04062 74.8731C0.960546 73.5468 0.944531 70.4914 1.52108 68.8806C1.54665 68.8092 1.57313 68.7346 1.60067 68.6571M23.6702 51.4784L23.6683 51.5034M23.6702 51.4784C23.6695 51.4868 23.6689 51.4951 23.6683 51.5034M1.60067 68.6571L1.60289 68.6509M1.60067 68.6571C1.60141 68.655 1.60215 68.653 1.60289 68.6509M1.60289 68.6509L1.60324 68.6499M1.60289 68.6509C1.60301 68.6505 1.60312 68.6502 1.60324 68.6499M1.60324 68.6499C2.35276 66.54 3.88705 62.221 9.25645 57.2791C13.7151 53.1755 17.1039 49.3051 18.241 47.8829C19.5543 46.3967 21.8348 42.2164 20.4511 37.384C19.0674 32.5516 16.095 25.4629 14.7817 22.5226L10.3135 10.4896C9.76894 9.01947 8.77599 5.81069 9.16036 4.73683C9.54473 3.66297 10.2814 3.49039 10.6017 3.53833C11.1302 3.60225 12.5524 4.13278 14.013 5.74357C15.4736 7.35435 17.3121 9.86641 18.0488 10.9211C19.0578 12.7268 21.585 17.7573 23.6221 23.4334C24.2755 22.7048 24.4069 20.6369 24.3909 19.6941C24.8233 16.0667 26.0821 7.92004 27.658 4.35331C29.2339 0.786566 30.845 0.757802 31.4536 1.18926C32.0461 1.44494 33.2985 3.04934 33.5676 7.42147C33.8366 11.7936 33.968 18.0322 34 20.605C33.9199 22.4587 33.2793 27.3166 32.8469 29.378C32.5106 31.1518 31.0212 36.569 28.1865 42.0342L30.9251 34.4117C31.934 31.2317 33.1832 23.9128 33.1832 19.3106C33.1832 18.7494 33.186 18.1323 33.189 17.4779M33.189 17.4779L33.189 17.4705M33.189 17.4779C33.189 17.4754 33.189 17.473 33.189 17.4705M33.189 17.4705L33.189 17.4695M33.189 17.4705C33.189 17.4702 33.189 17.4699 33.189 17.4695M33.189 17.4695C33.2108 12.7015 33.2415 5.95424 32.2704 4.35331C31.1942 2.57931 31.0294 2.53284 30.7109 2.44308C30.7023 2.44067 30.6937 2.43822 30.6848 2.43571C30.4158 2.359 29.9001 3.39451 29.6759 3.92185C28.6669 6.11111 26.4472 12.3305 25.64 19.6941C24.8139 27.2312 24.9219 27.7608 25.1201 28.7319C25.1639 28.9467 25.2122 29.1831 25.2557 29.5218C25.4479 31.0176 26.1685 33.405 26.5049 34.4117C26.665 34.955 27.0045 36.3101 27.0814 37.384C27.1583 38.4579 26.7291 39.813 26.5049 40.3563C26.4408 40.4841 26.207 40.7302 25.7842 40.6919C25.3614 40.6535 24.583 39.2057 24.2467 38.4866C23.9264 37.6237 23.3819 35.802 23.3819 32.7338V26.5975C23.3979 25.8784 23.3531 23.6731 22.469 22.1391C21.4767 19.9388 20.8991 18.4888 20.427 17.3038C19.6647 15.3906 19.1776 14.1678 17.6645 11.5923C15.2141 7.42147 13.1482 4.97652 11.2744 4.35331C9.77535 3.85473 9.74824 4.64146 9.78495 5.26417C9.833 6.07915 9.96753 8.28439 10.89 10.3938C13.619 17.834 17.3441 27.1088 18.8656 30.8162C19.4742 32.2864 20.8163 35.6582 21.3159 37.384C21.8156 39.1098 21.9405 40.8197 21.9405 41.4589C21.8124 42.0821 21.4697 43.597 21.1237 44.6709C20.7778 45.7447 19.1539 48.6499 18.241 49.5128C17.7669 49.961 15.8878 51.8473 14.0187 53.7235C12.2892 55.4596 10.5683 57.1871 9.97714 57.7585C8.43967 59.2447 5.26866 63.1278 4.35579 65.1413C3.44292 67.1548 2.33787 70.2709 2.53005 73.6267C2.72223 76.9825 3.01052 77.9892 5.02843 79.763C7.04634 81.5368 8.6799 81.2012 8.6799 81.2012L6.03739 78.4686C5.38076 77.4938 4.59602 75.4484 4.54797 72.9555C4.49992 70.4626 5.3167 67.2506 7.19049 65.9083C9.06427 64.566 12.2353 65.7645 13.1962 66.6274C14.1571 67.4903 14.8298 68.545 15.1661 69.8873C15.5024 71.2297 15.9348 73.8184 15.9348 75.4484C15.9348 77.0784 14.3013 79.892 13.3884 81.2012C16.0789 81.4888 21.4012 81.1284 23.3819 79.5712C24.9674 78.3248 26.5529 75.784 27.4658 72.4761C28.3787 69.1682 28.9072 62.3128 27.2256 58.142C25.8803 54.8054 25.3838 53.2362 25.3037 52.8686C24.6999 52.9188 24.4183 52.8671 24.0545 52.581C23.6288 52.0346 23.6433 51.839 23.6683 51.5034M11.6585 80.53C10.0732 80.578 6.80612 78.7083 6.27756 75.6881C5.749 72.6679 5.74912 71.6132 6.66192 69.0724C6.95022 68.3373 7.86313 66.8767 9.20841 66.9151C10.5537 66.9534 12.6197 69.2162 13.1001 69.9353C13.5806 70.6544 14.5127 72.6391 14.5895 74.0581C14.6664 75.4772 14.3013 77.8933 14.061 78.5645C13.8208 79.2357 13.2439 80.4821 11.6585 80.53ZM28.2528 45.193C28.2528 45.6275 27.9 45.9797 27.4649 45.9797C27.0297 45.9797 26.677 45.6275 26.677 45.193C26.677 44.7585 27.0297 44.4063 27.4649 44.4063C27.9 44.4063 28.2528 44.7585 28.2528 45.193Z" stroke="white"/>
</svg>
