<svg width="13" height="13" viewBox="0 0 13 13" fill="none" xmlns="http://www.w3.org/2000/svg">
<path d="M10.4995 5H9.49952C9.49912 4.6023 9.34096 4.221 9.05974 3.93978C8.77852 3.65856 8.39722 3.5004 7.99952 3.5V2.5C8.66232 2.5008 9.29774 2.76445 9.76641 3.23311C10.2351 3.70178 10.4987 4.33721 10.4995 5Z" fill="white"/>
<path d="M12.4995 5H11.4995C11.4985 4.07207 11.1294 3.18245 10.4732 2.5263C9.81708 1.87015 8.92745 1.50106 7.99952 1.5V0.500004C9.19259 0.501328 10.3364 0.975858 11.18 1.81949C12.0237 2.66311 12.4982 3.80694 12.4995 5Z" fill="white"/>
<path d="M8.66602 9.241L9.78602 8.121C9.93594 7.97105 10.1266 7.86838 10.3343 7.82572C10.542 7.78306 10.7576 7.80228 10.9545 7.881L12.3185 8.427C12.5196 8.50744 12.6919 8.64627 12.8133 8.82559C12.9347 9.0049 12.9995 9.21647 12.9995 9.433V11.9135C12.9999 12.0609 12.9701 12.2069 12.9121 12.3424C12.8541 12.478 12.769 12.6002 12.6621 12.7018C12.5552 12.8033 12.4287 12.8819 12.2904 12.9329C12.152 12.9838 12.0047 13.006 11.8575 12.998C2.29652 12.403 0.365521 4.305 0.00702108 1.204C-0.0103421 1.0524 0.00458747 0.898842 0.050828 0.753423C0.0970685 0.608005 0.173572 0.474024 0.275307 0.360293C0.377041 0.246561 0.501702 0.155657 0.641088 0.0935597C0.780474 0.031462 0.931428 -0.000422216 1.08402 4.22172e-06H3.52052C3.73706 -2.7313e-06 3.94863 0.06487 4.12794 0.186254C4.30725 0.307638 4.44608 0.479965 4.52652 0.681004L5.07202 2.045C5.15074 2.24189 5.16997 2.45755 5.1273 2.66526C5.08464 2.87296 4.98198 3.06359 4.83202 3.2135L3.71202 4.3335C3.71202 4.3335 4.33302 8.6995 8.66602 9.241Z" fill="white"/>
</svg>
